<svg width="17" height="16" viewBox="0 0 17 16" fill="none" xmlns="http://www.w3.org/2000/svg">
<path fill-rule="evenodd" clip-rule="evenodd" d="M8.57634 12.4211L4.62211 14.5874C4.3064 14.7514 3.91744 14.6353 3.74339 14.325V14.325C3.69304 14.2288 3.66587 14.1223 3.66406 14.0138V4.41498C3.66406 2.58432 4.91502 1.85205 6.71517 1.85205H10.944C12.6892 1.85205 13.9951 2.5355 13.9951 4.29294V14.0138C13.9951 14.1869 13.9263 14.353 13.8039 14.4755C13.6814 14.5979 13.5153 14.6667 13.3422 14.6667C13.2317 14.6649 13.1231 14.6378 13.0249 14.5874L9.04621 12.4211C8.8996 12.3419 8.72295 12.3419 8.57634 12.4211Z" stroke="#A6A5AD" stroke-width="1.25" stroke-linecap="round" stroke-linejoin="round"/>
<path d="M6.37891 6.21514H11.2424" stroke="#A6A5AD" stroke-width="1.25" stroke-linecap="round" stroke-linejoin="round"/>
</svg>
