<svg width="16" height="16" viewBox="0 0 16 16" fill="none" xmlns="http://www.w3.org/2000/svg">
<path d="M9.80204 11.9587C11.1833 10.9223 13.1766 9.29971 14.0073 8.00202C14.6288 7.03253 14.831 5.83142 14.5607 4.71464C13.9831 2.17072 10.7846 1.13121 8.79234 2.836C8.68029 2.93124 8.577 3.03683 8.47098 3.14525C8.42773 3.1895 8.38398 3.23421 8.33898 3.27889C8.29399 3.23421 8.25024 3.18949 8.20698 3.14524C8.10096 3.03683 7.99767 2.93124 7.88562 2.836C5.89331 1.13121 2.69487 2.17072 2.11727 4.71464C1.84693 5.83142 2.04914 7.03253 2.67069 8.00202C3.50134 9.29971 5.49464 10.9223 6.87592 11.9587C7.26079 12.2476 8.33898 13 8.33898 13C8.33898 13 9.41717 12.2476 9.80204 11.9587Z" fill="#EA0C00" stroke="#EA0C00" stroke-width="1.25"/>
</svg>
